<?xml version="1.0" encoding="utf-8"?>
<!-- Generator: Adobe Illustrator 24.1.2, SVG Export Plug-In . SVG Version: 6.00 Build 0)  -->
<svg version="1.1" id="Layer_1" xmlns="http://www.w3.org/2000/svg" xmlns:xlink="http://www.w3.org/1999/xlink" x="0px" y="0px"
	 viewBox="0 0 44 48" style="enable-background:new 0 0 44 48;" xml:space="preserve">
<style type="text/css">
	.st0{fill-rule:evenodd;clip-rule:evenodd;fill:#6DB33E;}
</style>
<path class="st0" d="M22.13,2.52c-7.74,0-12.41,2.51-14.97,4.61c-3.24,2.67-4.39,5.68-4.39,7.45c0,1.14,0.39,1.72,1.17,1.72h36.37
	c0.78,0,1.17-0.58,1.17-1.72c0-1.77-1.15-4.79-4.39-7.45C34.54,5.03,29.87,2.52,22.13,2.52z M40.31,18.82H3.94
	c-2.21,0-3.69-1.7-3.69-4.24c0-2.43,1.39-6.18,5.31-9.4C8.44,2.82,13.64,0,22.13,0s13.69,2.82,16.57,5.18
	C42.61,8.4,44,12.15,44,14.58C44,17.12,42.52,18.82,40.31,18.82z M41.05,22.67c0.63,0.7,0.94,1.01,1.65,1.01
	c0.69,0,1.26,0.56,1.26,1.26c0,0.7-0.56,1.26-1.26,1.26c-1.84,0-2.8-1.06-3.5-1.83l0,0c-0.63-0.7-0.94-1.01-1.65-1.01
	s-1.01,0.31-1.65,1.01l0,0.01c-0.7,0.77-1.66,1.83-3.5,1.83c-1.84,0-2.8-1.06-3.5-1.83c-0.63-0.7-0.94-1.01-1.64-1.01
	c-0.7,0-1.01,0.31-1.64,1.01c-0.7,0.77-1.66,1.83-3.5,1.83s-2.8-1.06-3.51-1.83c-0.63-0.7-0.94-1.01-1.64-1.01
	c-0.7,0-1.01,0.31-1.64,1.01c-0.7,0.77-1.66,1.83-3.5,1.83c-1.84,0-2.8-1.06-3.5-1.83c-0.63-0.7-0.94-1.01-1.64-1.01
	c-0.7,0-1.01,0.31-1.64,1.01c-0.7,0.77-1.66,1.83-3.5,1.83c-0.69,0-1.26-0.56-1.26-1.26c0-0.69,0.56-1.26,1.26-1.26
	c0.7,0,1.01-0.31,1.64-1.01c0.7-0.77,1.66-1.83,3.5-1.83s2.8,1.06,3.5,1.83c0.63,0.7,0.94,1.01,1.64,1.01c0.7,0,1.01-0.31,1.64-1.01
	c0.7-0.77,1.66-1.83,3.51-1.83c1.84,0,2.8,1.06,3.5,1.83c0.63,0.7,0.94,1.01,1.64,1.01c0.7,0,1.01-0.31,1.64-1.01l0,0
	c0.7-0.77,1.66-1.83,3.5-1.83c1.84,0,2.8,1.06,3.5,1.83c0.63,0.7,0.94,1.01,1.64,1.01c0.7,0,1.01-0.31,1.65-1.01l0,0
	c0.7-0.77,1.66-1.83,3.51-1.83C39.39,20.83,40.35,21.89,41.05,22.67z M3.45,30.61c-0.52,0-0.94,0.42-0.94,0.94v0.57
	c0,0.52,0.42,0.94,0.94,0.94H40.2c0.52,0,0.94-0.42,0.94-0.94v-0.57c0-0.52-0.42-0.94-0.94-0.94H3.45z M40.2,35.57H3.45
	C1.55,35.57,0,34.02,0,32.11v-0.57c0-1.91,1.55-3.46,3.45-3.46H40.2c1.9,0,3.45,1.55,3.45,3.46v0.57
	C43.66,34.02,42.11,35.57,40.2,35.57z M40.58,44.76c-0.46,0.49-1.16,0.72-2.12,0.72H5.58c-0.96,0-1.66-0.24-2.12-0.72
	c-0.75-0.78-0.81-2.12-0.77-2.85c0.06-1.31,1.69-1.32,1.76-1.32H39.6c0.07,0,1.69,0.01,1.75,1.32
	C41.38,42.64,41.33,43.97,40.58,44.76z M39.6,38.06H4.44c-2.04,0-4.16,1.28-4.27,3.73c-0.06,1.38,0.14,3.32,1.47,4.71
	c0.95,1,2.28,1.5,3.94,1.5h32.88c1.67,0,2.99-0.5,3.94-1.5c1.33-1.39,1.53-3.33,1.47-4.71C43.75,39.35,41.63,38.06,39.6,38.06z"/>
</svg>
